<svg width="181" height="219" viewBox="0 0 181 219" fill="none" xmlns="http://www.w3.org/2000/svg">
<path fill-rule="evenodd" clip-rule="evenodd" d="M111.88 135.024L140.282 198.246H138.769H67.2446L79.95 186.795H122.584L107.877 154.052L36.5156 218.372H19.4146L111.88 135.024Z" fill="url(#paint0_linear_33_19)"/>
<path fill-rule="evenodd" clip-rule="evenodd" d="M147.669 198.246H167.653H172.32H180.263L125.948 80.3905L0 198.246H33.0557L45.7543 186.796H29.4401L122.075 99.3841L162.375 186.796H142.656L147.669 198.246Z" fill="url(#paint1_linear_33_19)"/>
<path fill-rule="evenodd" clip-rule="evenodd" d="M93.5033 27.4322L38.4693 137.792L136.035 45.985L141.055 56.9063L3.08008 185.642L93.5033 0L118.622 54.3286L109.75 62.4348L93.5033 27.4322Z" fill="url(#paint2_linear_33_19)"/>
<defs>
<linearGradient id="paint0_linear_33_19" x1="55.5449" y1="235.48" x2="182.539" y2="93.5035" gradientUnits="userSpaceOnUse">
<stop stop-color="#813D97"/>
<stop offset="1" stop-color="#20C4F4"/>
</linearGradient>
<linearGradient id="paint1_linear_33_19" x1="56.1425" y1="236.248" x2="177.08" y2="101.042" gradientUnits="userSpaceOnUse">
<stop stop-color="#813D97"/>
<stop offset="1" stop-color="#20C4F4"/>
</linearGradient>
<linearGradient id="paint2_linear_33_19" x1="-11.8394" y1="172.804" x2="114.438" y2="31.6281" gradientUnits="userSpaceOnUse">
<stop stop-color="#813D97"/>
<stop offset="1" stop-color="#20C4F4"/>
</linearGradient>
</defs>
</svg>
